<?xml version="1.0" encoding="utf-8"?>
<svg viewBox="0 0 500 500" xmlns="http://www.w3.org/2000/svg">
  <ellipse style="transform-origin: 5px 250px;" cx="250" cy="250" rx="245" ry="245"/>
  <g transform="matrix(1, 0, 0, 1, -22.03928565979, 27.083206176758)" style="transform-origin: 22.0393px -27.0832px;">
    <path d="M 274.563 47.418 L 304.225 56.537 C 304.627 56.646 304.981 56.882 305.236 57.211 C 305.491 57.539 305.632 57.942 305.637 58.357 C 305.643 58.773 305.513 59.179 305.267 59.514 C 305.021 59.849 304.672 60.095 304.274 60.214 L 274.612 69.432 C 274.311 69.523 274.037 69.687 273.815 69.909 C 273.592 70.132 273.428 70.406 273.337 70.707 L 264.218 100.369 C 264.109 100.77 263.872 101.125 263.544 101.38 C 263.216 101.634 262.813 101.775 262.397 101.781 C 261.982 101.786 261.576 101.656 261.241 101.41 C 260.906 101.164 260.66 100.816 260.54 100.418 L 251.323 70.756 C 251.232 70.455 251.068 70.181 250.845 69.958 C 250.623 69.736 250.349 69.572 250.048 69.481 L 220.385 60.361 C 219.984 60.253 219.629 60.016 219.375 59.688 C 219.12 59.359 218.979 58.957 218.974 58.541 C 218.968 58.126 219.098 57.72 219.344 57.384 C 219.59 57.049 219.938 56.804 220.336 56.684 L 249.999 47.467 C 250.3 47.375 250.574 47.211 250.796 46.989 C 251.018 46.767 251.183 46.493 251.274 46.192 L 260.393 16.529 C 260.502 16.128 260.738 15.773 261.067 15.519 C 261.395 15.264 261.798 15.123 262.213 15.117 C 262.629 15.112 263.035 15.242 263.37 15.488 C 263.705 15.734 263.951 16.082 264.07 16.48 L 273.288 46.143 C 273.379 46.444 273.543 46.718 273.766 46.94 C 273.988 47.162 274.262 47.326 274.563 47.418 Z" style="fill: rgb(255, 255, 255);"/>
    <path d="M 193.419 140.965 L 240.242 154.056 C 240.92 154.248 241.516 154.656 241.941 155.218 C 242.366 155.78 242.596 156.465 242.596 157.169 C 242.596 157.874 242.366 158.559 241.941 159.121 C 241.516 159.683 240.92 160.091 240.242 160.283 L 193.37 173.177 C 192.832 173.326 192.341 173.613 191.946 174.008 C 191.55 174.403 191.264 174.894 191.115 175.433 L 178.024 222.255 C 177.832 222.933 177.424 223.53 176.862 223.955 C 176.3 224.379 175.615 224.609 174.911 224.609 C 174.206 224.609 173.521 224.379 172.959 223.955 C 172.398 223.53 171.99 222.933 171.798 222.255 L 158.903 175.384 C 158.754 174.845 158.468 174.354 158.072 173.959 C 157.677 173.563 157.186 173.277 156.648 173.128 L 109.825 160.037 C 109.147 159.845 108.55 159.437 108.126 158.876 C 107.701 158.314 107.471 157.629 107.471 156.924 C 107.471 156.22 107.701 155.535 108.126 154.973 C 108.55 154.411 109.147 154.003 109.825 153.811 L 156.697 140.916 C 157.235 140.767 157.726 140.481 158.121 140.086 C 158.517 139.69 158.803 139.199 158.952 138.661 L 172.043 91.838 C 172.235 91.16 172.643 90.564 173.205 90.139 C 173.766 89.714 174.452 89.484 175.156 89.484 C 175.86 89.484 176.546 89.714 177.108 90.139 C 177.669 90.564 178.077 91.16 178.269 91.838 L 191.164 138.71 C 191.313 139.248 191.599 139.739 191.995 140.135 C 192.39 140.53 192.881 140.816 193.419 140.965 Z" style="fill: rgb(255, 255, 255);"/>
    <path d="M 424.298 275.109 C 441.801 277.266 441.311 290.945 424.347 292.416 C 384.094 295.946 336.34 301.388 319.67 345.122 C 312.315 364.309 307.413 388.317 304.961 417.146 C 304.898 417.963 304.682 418.743 304.327 419.436 C 303.972 420.129 303.486 420.719 302.902 421.167 C 292.459 429.158 288.683 419.303 287.654 410.723 C 276.671 317.47 252.059 302.026 162.139 291.239 C 161.363 291.148 160.622 290.884 159.975 290.467 C 159.328 290.05 158.793 289.492 158.413 288.837 C 153.87 280.796 156.795 276.155 167.189 274.913 C 262.159 263.587 273.533 247.947 287.654 154.448 C 289.648 141.472 294.73 139.2 302.902 147.633 C 303.981 148.71 304.673 150.216 304.863 151.899 C 316.728 243.681 330.799 263.734 424.298 275.109 Z" style="fill: rgb(255, 255, 255);"/>
  </g>
</svg>